Coordinates
version=1
nRows=25
nColumns=34
inDegrees=no

Units are S.I. units (second, meters, Newtons, ...)
If the header above contains a line with 'inDegrees', this indicates whether rotational values are in degrees (yes) or radians (no).

endheader
time	pelvis_tilt	pelvis_list	pelvis_rotation	pelvis_tx	pelvis_ty	pelvis_tz	hip_flexion_r	hip_adduction_r	hip_rotation_r	knee_angle_r	ankle_angle_r	subtalar_angle_r	mtp_angle_r	hip_flexion_l	hip_adduction_l	hip_rotation_l	knee_angle_l	ankle_angle_l	subtalar_angle_l	mtp_angle_l	lumbar_extension	lumbar_bending	lumbar_rotation	arm_flex_r	arm_add_r	arm_rot_r	elbow_flex_r	pro_sup_r	arm_flex_l	arm_add_l	arm_rot_l	elbow_flex_l	pro_sup_l
10.08	-0.249179	0.0883475	-0.0226529	-0.557092	0.570823	-0.559158	1.76083	-0.140953	0.164464	1.62557	0.0868869	-0.600154	-0.00241763	1.71885	-0.266283	0.051675	1.58194	-0.162781	-0.610865	-0.00241763	-0.424573	-0.00504087	-0.0965381	0.742173	-0.237264	0.20141	2.07336	1.81369	0.489598	-0.225016	-0.0387389	2.21504	1.8875
10.09	-0.221366	0.0841709	-0.0200374	-0.561568	0.572864	-0.559523	1.73483	-0.144377	0.161614	1.62126	0.0729934	-0.598628	-0.00241763	1.69415	-0.263266	0.0492932	1.57659	-0.171091	-0.610865	-0.00241763	-0.440392	-0.000622244	-0.097333	0.720485	-0.235783	0.196286	2.07224	1.814	0.472512	-0.216618	-0.0412428	2.20692	1.8956
10.1	-0.195462	0.0804474	-0.0161277	-0.565865	0.574882	-0.560172	1.70999	-0.148867	0.158854	1.61624	0.0584443	-0.598791	-0.00241763	1.67105	-0.25895	0.0462797	1.57102	-0.18072	-0.610865	-0.00241763	-0.453435	0.00391775	-0.0998151	0.696366	-0.234674	0.193073	2.07143	1.81079	0.452174	-0.20805	-0.0440971	2.19858	1.90313
10.11	-0.169791	0.0757104	-0.012297	-0.570097	0.577034	-0.560891	1.68369	-0.152472	0.154396	1.60998	0.0458888	-0.599692	-0.00241763	1.64849	-0.255093	0.0444701	1.56547	-0.192566	-0.610865	-0.00241763	-0.4658	0.00932841	-0.101879	0.672603	-0.231775	0.189518	2.06945	1.80665	0.430321	-0.198821	-0.0461167	2.18964	1.90594
10.12	-0.143323	0.0711406	-0.00820217	-0.574252	0.579359	-0.561636	1.65587	-0.156164	0.149667	1.60359	0.0356898	-0.600193	-0.00241763	1.62491	-0.251302	0.0425629	1.55986	-0.205761	-0.610865	-0.00241763	-0.478338	0.0144862	-0.10342	0.648539	-0.227518	0.183945	2.06707	1.8028	0.408847	-0.189369	-0.0461552	2.17898	1.90299
10.13	-0.117713	0.0696671	-0.00224691	-0.578197	0.581391	-0.562621	1.63058	-0.162633	0.148664	1.59912	0.0257657	-0.600718	-0.00241763	1.60138	-0.244955	0.0381324	1.55438	-0.219273	-0.610865	-0.00241763	-0.488507	0.0177099	-0.105783	0.621618	-0.224619	0.176888	2.06701	1.79941	0.388046	-0.18034	-0.0438492	2.16623	1.89774
10.14	-0.0943098	0.0715857	0.00515908	-0.581945	0.58279	-0.563795	1.6098	-0.171272	0.152048	1.59673	0.0147266	-0.601768	-0.00241763	1.57977	-0.236052	0.0316671	1.54939	-0.23346	-0.610865	-0.00241763	-0.494596	0.0186228	-0.108305	0.591916	-0.223743	0.168499	2.06948	1.79784	0.367723	-0.171861	-0.0397571	2.15176	1.89495
10.15	-0.0721492	0.0740428	0.0116068	-0.585567	0.583686	-0.564762	1.59105	-0.178485	0.15626	1.59513	0.00379035	-0.602874	-0.00241763	1.56023	-0.228374	0.0259941	1.5456	-0.248022	-0.610865	-0.00241763	-0.497872	0.018278	-0.10893	0.561386	-0.223255	0.158441	2.07196	1.79984	0.347935	-0.164564	-0.0347447	2.13637	1.89691
10.16	-0.0500287	0.0749943	0.0161949	-0.588995	0.58423	-0.5654	1.57215	-0.183015	0.159037	1.59414	-0.0051346	-0.603638	-0.00241763	1.54218	-0.223852	0.0228423	1.5437	-0.261868	-0.610865	-0.00241763	-0.500055	0.0179176	-0.107456	0.530931	-0.222411	0.147239	2.07363	1.80488	0.328598	-0.159337	-0.0288293	2.12147	1.90098
10.17	-0.0277153	0.0751906	0.0203509	-0.592173	0.584455	-0.565979	1.55321	-0.186901	0.161751	1.59456	-0.0108626	-0.603532	-0.00241763	1.52481	-0.220187	0.021379	1.54332	-0.274304	-0.610865	-0.00241763	-0.50196	0.0175769	-0.106125	0.500938	-0.221329	0.13602	2.07504	1.81024	0.3096	-0.156	-0.0223136	2.10823	1.90421
10.18	-0.00549327	0.0760365	0.0251742	-0.595161	0.584475	-0.566681	1.5347	-0.191807	0.165824	1.59629	-0.0140038	-0.602606	-0.00241763	1.50737	-0.215189	0.019928	1.54338	-0.285144	-0.610865	-0.00241763	-0.503656	0.0165035	-0.107031	0.472202	-0.219389	0.12587	2.0754	1.81376	0.290799	-0.153678	-0.0169686	2.09677	1.90795
10.19	0.016869	0.0779706	0.0302959	-0.598023	0.584432	-0.567475	1.51628	-0.197786	0.171055	1.59879	-0.015812	-0.600751	-0.00241763	1.48911	-0.209246	0.0175243	1.54351	-0.294194	-0.610865	-0.00241763	-0.50576	0.0144767	-0.109445	0.444655	-0.21674	0.116782	2.07521	1.81593	0.272575	-0.152155	-0.0127962	2.08674	1.9134
10.2	0.0402769	0.080457	0.03505	-0.600815	0.584308	-0.568362	1.49717	-0.204215	0.176798	1.60184	-0.0173504	-0.598394	-0.00241763	1.46958	-0.203295	0.0146665	1.54423	-0.301742	-0.610865	-0.00241763	-0.509704	0.0124738	-0.110507	0.417338	-0.215353	0.107741	2.07758	1.81785	0.256162	-0.151642	-0.00695878	2.07789	1.91794
10.21	0.0643926	0.0826666	0.0391887	-0.603576	0.583938	-0.569391	1.47781	-0.21013	0.182711	1.60523	-0.0198122	-0.597272	-0.00241763	1.44983	-0.197482	0.0126925	1.54591	-0.308886	-0.610865	-0.00241763	-0.515139	0.0114786	-0.10931	0.390171	-0.21578	0.0984327	2.08335	1.81893	0.241812	-0.151736	0.00107346	2.07048	1.91897
10.22	0.0882916	0.0845393	0.0429208	-0.606284	0.583374	-0.57053	1.45877	-0.215444	0.188545	1.60865	-0.0233705	-0.598171	-0.00241763	1.43051	-0.191563	0.0116208	1.54803	-0.31538	-0.610865	-0.00241763	-0.521015	0.0110595	-0.108225	0.364287	-0.21581	0.0894345	2.08969	1.81954	0.228266	-0.151713	0.00786917	2.06532	1.91833
10.23	0.112387	0.0861758	0.0471214	-0.608919	0.582918	-0.571733	1.43896	-0.221693	0.193221	1.61205	-0.0270733	-0.599805	-0.00241763	1.41058	-0.184932	0.010893	1.54987	-0.320756	-0.610865	-0.00241763	-0.52792	0.0108746	-0.108489	0.339849	-0.214627	0.0805432	2.09496	1.81999	0.215231	-0.151468	0.0121689	2.06195	1.91882
10.24	0.137709	0.0871008	0.0519677	-0.611573	0.58274	-0.572947	1.41692	-0.229176	0.195554	1.61515	-0.0306145	-0.601518	-0.00241763	1.38912	-0.177769	0.0109155	1.55129	-0.325483	-0.610865	-0.00241763	-0.536961	0.0114558	-0.107072	0.315197	-0.214079	0.0695011	2.10085	1.82037	0.204436	-0.151544	0.0180744	2.05813	1.91925
10.25	0.163244	0.0869673	0.0566613	-0.614276	0.582739	-0.574205	1.3937	-0.23632	0.195893	1.61744	-0.0341055	-0.603742	-0.00241763	1.36742	-0.170782	0.0122638	1.55236	-0.330488	-0.610865	-0.00241763	-0.547026	0.0132744	-0.102377	0.289692	-0.214726	0.055323	2.10817	1.82229	0.195819	-0.152076	0.0277538	2.05355	1.9159
10.26	0.187045	0.0860723	0.0607019	-0.616901	0.582854	-0.575577	1.37122	-0.242251	0.195335	1.61873	-0.0363644	-0.606005	-0.00241763	1.34716	-0.164168	0.0145023	1.55292	-0.336023	-0.610865	-0.00241763	-0.556296	0.0161368	-0.0978207	0.265261	-0.214802	0.0410579	2.11462	1.82703	0.186409	-0.15229	0.0362329	2.05059	1.9101
10.27	0.208777	0.0849349	0.063862	-0.619375	0.583144	-0.576949	1.34981	-0.247067	0.194179	1.61915	-0.0364757	-0.607464	-0.00241763	1.32827	-0.15828	0.0166693	1.55286	-0.341836	-0.610865	-0.00241763	-0.564458	0.0191405	-0.0953109	0.24302	-0.213083	0.0294273	2.11857	1.83189	0.174866	-0.151483	0.0394828	2.04991	1.90676
10.28	0.229123	0.0842268	0.0662062	-0.621754	0.583615	-0.578224	1.32927	-0.25141	0.1927	1.6189	-0.035538	-0.608031	-0.00241763	1.30999	-0.152901	0.0180248	1.55216	-0.348277	-0.610865	-0.00241763	-0.571829	0.0213792	-0.0929581	0.221794	-0.209801	0.0196622	2.12097	1.83244	0.162773	-0.149838	0.0403597	2.04975	1.90586
10.29	0.248603	0.0847164	0.0683874	-0.624108	0.584249	-0.579581	1.30962	-0.256434	0.191907	1.61812	-0.0346889	-0.607576	-0.00241763	1.29181	-0.146506	0.018195	1.5507	-0.355871	-0.610865	-0.00241763	-0.578783	0.0226798	-0.0904941	0.201167	-0.205946	0.0110023	2.12288	1.82812	0.151305	-0.147833	0.0417603	2.0493	1.90495
10.3	0.266925	0.086306	0.0704517	-0.62641	0.585019	-0.58107	1.29115	-0.261882	0.192197	1.6168	-0.0339931	-0.605901	-0.00241763	1.27421	-0.139078	0.0173662	1.54855	-0.36482	-0.610865	-0.00241763	-0.585064	0.023058	-0.0888399	0.181451	-0.202557	0.00381479	2.12437	1.82108	0.140222	-0.145693	0.042875	2.0489	1.90448
10.31	0.283691	0.0876898	0.0713516	-0.628603	0.585904	-0.582351	1.27379	-0.265553	0.192348	1.61476	-0.0333663	-0.603354	-0.00241763	1.25795	-0.133222	0.0163837	1.54614	-0.374027	-0.610865	-0.00241763	-0.590185	0.0225566	-0.0864483	0.162185	-0.199255	-0.00299869	2.12555	1.8141	0.129543	-0.143666	0.0434675	2.0483	1.90559
10.32	0.299037	0.0880931	0.0712433	-0.630676	0.586841	-0.583285	1.25737	-0.267183	0.191325	1.61215	-0.0333043	-0.600448	-0.00241763	1.24328	-0.129541	0.0161279	1.54382	-0.382894	-0.610865	-0.00241763	-0.594115	0.021835	-0.0826176	0.143537	-0.194878	-0.0104862	2.12623	1.80877	0.119558	-0.141915	0.0446522	2.04738	1.90586
